<?xml version="1.0" standalone="no"?>
<!DOCTYPE svg PUBLIC "-//W3C//DTD SVG 20010904//EN"
 "http://www.w3.org/TR/2001/REC-SVG-20010904/DTD/svg10.dtd">
<svg version="1.0" xmlns="http://www.w3.org/2000/svg"
 width="500.000000pt" height="500.000000pt" viewBox="0 0 500.000000 500.000000"
 preserveAspectRatio="xMidYMid meet">
<metadata>
Created by potrace 1.14, written by Peter Selinger 2001-2017
</metadata>
<g transform="translate(0.000000,500.000000) scale(0.100000,-0.100000)"
fill="#000000" stroke="none">
<path d="M2419 3726 c-143 -50 -225 -189 -183 -312 9 -27 18 -81 20 -121 3
-60 0 -78 -21 -117 l-24 -46 37 -1 c20 0 48 -2 60 -3 13 -2 26 3 29 11 3 8 6
94 7 191 1 169 2 179 25 216 56 89 191 95 253 11 27 -36 34 -88 33 -260 0 -88
3 -163 8 -166 5 -4 28 -2 51 3 22 5 65 6 95 3 30 -4 88 -6 129 -6 128 1 193
-44 208 -146 5 -37 10 -44 40 -53 19 -7 39 -20 44 -31 23 -42 35 -9 33 92 -1
95 -64 189 -153 231 -37 18 -72 23 -189 27 l-145 6 -2 136 c-2 156 -15 199
-79 264 -70 69 -191 100 -276 71z"/>
<path d="M2002 3544 c-24 -16 -28 -44 -12 -75 13 -23 57 -25 81 -3 46 42 94
-37 104 -172 5 -66 -8 -94 -58 -124 -42 -26 -101 -26 -138 1 -31 22 -102 119
-113 157 -11 34 2 62 29 62 30 0 55 25 55 55 0 28 -24 55 -49 55 -27 0 -53
-24 -56 -51 -2 -13 -10 -40 -18 -58 -18 -43 -5 -96 41 -162 59 -86 119 -129
179 -129 16 0 27 -7 30 -20 3 -10 13 -22 22 -25 10 -3 31 -25 48 -49 17 -24
53 -57 80 -73 45 -26 54 -28 165 -28 115 0 117 0 147 -29 17 -16 40 -50 52
-75 60 -128 166 -253 247 -293 56 -27 144 -29 189 -5 68 36 156 154 188 254
14 43 15 58 5 88 -14 44 -47 61 -133 69 -31 3 -82 9 -113 12 -84 8 -106 19
-98 48 9 35 -13 94 -43 113 -68 45 -163 -3 -163 -82 0 -73 66 -122 139 -103
21 6 43 6 60 0 43 -17 77 -22 169 -28 151 -10 168 -35 109 -157 -129 -269
-319 -246 -491 61 -31 56 -68 114 -80 127 -32 35 -86 55 -132 50 -92 -11 -141
-7 -186 15 -49 23 -107 93 -87 106 6 3 9 20 6 38 -3 22 3 42 21 69 21 32 26
50 25 98 -1 63 -26 160 -49 197 -10 16 -130 82 -148 82 -1 0 -12 -7 -24 -16z"/>
<path d="M1810 3167 c-104 -102 -106 -278 -2 -384 69 -72 113 -86 275 -88
l139 -1 2 -144 c3 -163 10 -192 72 -260 50 -55 105 -82 180 -88 151 -12 282
97 298 247 4 43 3 46 -52 103 -31 32 -59 58 -62 58 -3 0 -5 -40 -6 -90 -1 -78
-4 -95 -27 -128 -67 -103 -219 -90 -267 22 -15 34 -18 71 -18 221 l1 180 -171
1 c-198 2 -228 6 -263 37 -75 64 -77 178 -5 235 25 19 26 21 9 34 -10 7 -30
27 -44 45 l-27 32 -32 -32z"/>
<path d="M992 2046 c-6 -9 -8 -169 -3 -233 1 -8 14 -13 31 -13 29 0 30 2 27
40 -5 63 -1 65 93 61 17 -1 20 -8 20 -51 0 -49 1 -50 30 -50 l30 0 0 124 c0
109 -2 124 -17 128 -34 9 -43 -2 -43 -51 l0 -48 -55 0 c-58 0 -58 0 -56 58 1
32 -2 37 -24 41 -14 3 -28 0 -33 -6z"/>
<path d="M1290 2052 c-6 -2 -10 -54 -10 -128 l0 -124 100 0 c98 0 100 0 96 23
-3 23 -5 23 -108 26 -24 1 -28 5 -28 29 0 28 1 28 56 28 52 -1 57 1 60 22 4
21 0 22 -57 22 -60 0 -60 0 -57 28 3 26 5 27 66 26 59 -1 62 1 62 23 0 12 -3
23 -7 24 -24 3 -165 3 -173 1z"/>
<path d="M1616 2050 c-12 -4 -36 -44 -63 -106 -70 -155 -67 -144 -33 -144 21
0 32 7 42 27 11 22 19 26 53 26 71 -1 75 -3 85 -28 7 -19 17 -25 40 -25 16 0
30 2 30 4 0 4 -29 70 -79 178 -11 26 -21 51 -21 56 0 13 -31 20 -54 12z m37
-110 l15 -40 -38 0 -38 0 15 40 c9 22 19 40 23 40 4 0 14 -18 23 -40z"/>
<path d="M1810 2051 c-12 -5 -15 -29 -15 -126 l0 -120 89 -3 c90 -3 111 4 99
35 -3 9 -24 13 -64 13 -40 0 -59 4 -60 13 -1 6 -1 51 -1 99 0 72 -3 87 -17 91
-9 2 -23 1 -31 -2z"/>
<path d="M1990 2039 c-13 -23 1 -36 40 -35 l35 1 2 -90 c0 -49 1 -96 2 -102 1
-7 14 -13 29 -13 l29 0 0 88 c1 128 -2 119 41 118 31 -1 37 3 40 22 4 25 11
23 -121 25 -71 2 -91 -1 -97 -14z"/>
<path d="M2253 2053 c-10 -4 -13 -38 -13 -129 l0 -124 30 0 c29 0 30 1 30 50
0 54 -1 54 74 52 37 -1 39 -3 38 -57 -1 -43 0 -45 28 -45 34 0 32 -9 30 150
-1 95 -7 110 -39 106 -11 -2 -17 -17 -21 -52 l-5 -50 -52 0 -53 0 0 47 c0 47
-14 63 -47 52z"/>
<path d="M2511 2050 c-9 -5 0 -27 33 -81 38 -61 46 -82 46 -121 0 -47 1 -48
30 -48 29 0 30 2 30 43 0 33 11 60 49 124 49 80 49 81 25 86 -26 5 -39 -7 -76
-70 l-24 -42 -30 51 c-29 51 -60 73 -83 58z"/>
<path d="M2940 2044 c-45 -19 -69 -52 -76 -106 -9 -76 47 -138 128 -141 45 -1
107 18 109 34 0 5 1 23 1 39 0 57 -2 60 -27 60 -21 0 -25 -5 -25 -27 0 -41
-14 -56 -51 -55 -65 2 -100 77 -57 126 29 33 63 40 101 21 23 -11 33 -12 43
-4 52 43 -67 85 -146 53z"/>
<path d="M3168 2052 c-16 -3 -18 -15 -17 -90 1 -50 6 -97 14 -112 37 -71 167
-71 205 0 12 23 18 180 7 197 -4 6 -15 10 -25 8 -9 -2 -20 -4 -23 -4 -3 -1 -6
-38 -6 -84 0 -91 -4 -104 -37 -116 -41 -16 -84 28 -75 75 1 5 1 34 0 65 -1 58
-9 69 -43 61z"/>
<path d="M3535 2053 c-15 -3 -33 -33 -67 -112 -26 -60 -51 -116 -54 -125 -5
-13 0 -16 25 -16 24 0 32 5 37 25 5 18 13 25 33 26 14 0 41 1 60 2 27 2 36 -3
47 -25 11 -21 22 -28 44 -28 28 0 38 9 24 23 -4 3 -28 54 -54 113 -49 109 -60
123 -95 117z m34 -109 c15 -42 12 -46 -27 -42 l-30 3 15 38 c8 20 18 37 22 37
4 0 13 -16 20 -36z"/>
<path d="M3726 2045 c-9 -9 -14 -182 -7 -237 1 -5 15 -8 32 -8 27 0 31 3 26
21 -15 58 40 69 75 14 19 -28 29 -35 56 -35 l32 0 -26 40 -27 41 21 14 c42 30
37 109 -10 139 -29 19 -156 27 -172 11z m142 -62 c16 -22 15 -30 -6 -51 -13
-13 -29 -17 -53 -14 -32 3 -34 6 -34 40 0 20 4 40 8 43 16 11 72 -1 85 -18z"/>
<path d="M4009 2052 l-26 -3 -2 -125 -1 -124 75 0 c125 0 180 39 179 126 -1
95 -84 142 -225 126z m144 -70 c28 -29 29 -77 2 -106 -19 -21 -34 -26 -69 -26
l-46 0 1 73 c1 39 3 75 5 78 7 12 90 -2 107 -19z"/>
<path d="M1807 1568 c0 -24 2 -49 2 -55 1 -15 71 -18 71 -4 0 5 -11 8 -25 5
-14 -2 -26 -1 -26 3 -1 5 -3 24 -4 43 -4 50 -4 50 -12 50 -5 0 -7 -19 -6 -42z"/>
<path d="M1953 1584 c-15 -24 -15 -29 -2 -53 27 -49 109 -34 109 20 0 39 -19
59 -55 59 -26 0 -39 -6 -52 -26z m75 4 c31 -31 -3 -87 -42 -72 -26 10 -32 55
-11 71 23 16 37 17 53 1z"/>
<path d="M2120 1604 c0 -19 45 -104 53 -101 15 5 59 107 47 107 -5 0 -18 -19
-29 -42 l-19 -43 -18 42 c-16 37 -34 56 -34 37z"/>
<path d="M2293 1555 l0 -55 46 1 c33 0 41 3 26 8 -11 5 -28 7 -37 5 -12 -2
-18 4 -18 17 0 15 7 19 31 19 16 0 28 4 25 9 -3 4 -17 7 -31 6 -19 -3 -25 1
-25 15 0 13 6 18 24 16 14 -2 30 1 38 5 8 6 -4 9 -33 9 l-46 0 0 -55z"/>
<path d="M2450 1555 l0 -55 42 0 c54 0 43 10 -22 19 -3 1 -5 21 -4 46 1 25 -2
45 -7 45 -5 0 -9 -25 -9 -55z"/>
<path d="M2580 1605 c0 -2 9 -19 20 -37 11 -18 20 -41 20 -50 0 -10 4 -18 9
-18 5 0 8 8 7 18 -2 9 8 34 21 55 27 43 19 50 -13 10 l-22 -28 -13 28 c-10 23
-29 37 -29 22z"/>
<path d="M2843 1598 c-18 -24 -21 -57 -6 -77 15 -23 58 -28 83 -11 11 8 8 10
-15 7 -31 -5 -65 16 -65 39 0 24 30 44 56 38 14 -4 24 -2 24 5 0 15 -65 14
-77 -1z"/>
<path d="M3006 1558 c-14 -29 -23 -55 -20 -57 3 -3 9 1 13 8 12 20 68 24 75 6
3 -8 10 -15 16 -15 5 0 -2 25 -17 55 -15 30 -31 55 -35 55 -4 0 -18 -23 -32
-52z m47 2 c4 -15 0 -20 -14 -20 -21 0 -22 1 -13 24 8 22 21 20 27 -4z"/>
<path d="M3160 1556 c0 -34 4 -56 11 -56 6 0 9 7 5 15 -8 22 40 20 53 -2 5
-10 13 -14 17 -10 4 4 2 13 -4 19 -8 8 -8 15 -1 24 6 7 9 23 7 36 -2 19 -10
23 -45 26 l-43 3 0 -55z m67 31 c19 -12 3 -37 -23 -37 -19 0 -24 5 -24 25 0
25 18 30 47 12z"/>
<path d="M3329 1595 c-1 -8 -1 -26 -1 -40 0 -54 0 -55 44 -55 23 0 38 3 34 7
-4 4 -19 7 -33 8 -17 0 -27 6 -29 18 -2 13 5 17 27 17 17 0 28 4 25 9 -4 5
-17 8 -30 7 -18 -2 -24 2 -23 14 1 10 8 17 17 15 8 -1 24 1 35 6 15 6 9 8 -22
8 -32 1 -43 -3 -44 -14z"/>
</g>
</svg>
